<?xml version="1.0" encoding="UTF-8"?>
<svg id="Layer_1" data-name="Layer 1" xmlns="http://www.w3.org/2000/svg" viewBox="25.91 42.63 415.32 290.74">
  <defs>
    <style>
      .cls-1 {
        fill: #3550ce;
      }

      .cls-2 {
        fill: #e52828;
      }

      .cls-3 {
        fill: #1c317c;
      }
    </style>
  </defs>
  <g>
    <g>
      <path class="cls-1" d="M25.91,86.79v-44.16h8.68v17.67h26.05v8.83h-26.05v8.83h26.05v8.83H25.91Z" />
      <path class="cls-1" d="M69.33,86.79v-44.16h8.68v17.67h26.05v26.49h-8.68v-17.66h-17.37v17.66h-8.68Z" />
      <path
        class="cls-1"
        d="M112.75,86.79v-44.16h34.73v26.5h-26.05v8.83h26.05v8.83h-34.73ZM138.8,60.3v-8.83h-17.37v8.83h17.37Z" />
    </g>
    <g>
      <path
        class="cls-1"
        d="M26.31,180.96v-79.66h13.05v26.57h26.11v-26.57h13.05v79.66h-13.05v-39.82h-26.11v39.82h-13.05Z" />
      <path
        class="cls-1"
        d="M91.59,167.69v-53.11h13.05v53.11h-13.05ZM104.64,114.57v-13.27h26.11v13.27h-26.11ZM104.64,180.96v-13.27h26.11v13.27h-26.11ZM130.75,167.69v-53.11h13.05v53.11h-13.05Z" />
      <path
        class="cls-1"
        d="M156.87,180.96v-79.66h13.05v13.27h13.05v13.29h-13.05v53.1h-13.05ZM196.03,180.96v-39.82h-13.05v-13.27h13.05v-26.57h13.05v79.66h-13.05Z" />
      <path
        class="cls-1"
        d="M222.15,180.96v-79.66h52.21v13.27h-39.16v13.29h39.16v13.27h-39.16v26.55h39.16v13.27h-52.21Z" />
      <path
        class="cls-1"
        d="M287.44,180.96v-13.27h39.16v-26.55h-39.16v-39.84h52.21v13.27h-39.16v13.29h39.16v53.1h-52.21Z" />
      <path class="cls-1" d="M378.82,180.96v-66.39h-26.11v-13.27h65.28v13.27h-26.12v66.39h-13.05Z" />
      <path
        class="cls-1"
        d="M26.31,262.94v-53.11h13.05v53.11h-13.05ZM39.36,209.82v-13.27h39.16v13.27h-39.16ZM39.36,276.21v-13.27h26.11v13.27h-26.11ZM65.47,262.94v-26.55h-13.05v-13.27h26.11v39.82h-13.05Z" />
      <path
        class="cls-1"
        d="M91.59,276.21v-66.39h13.05v26.57h26.11v-26.57h13.05v66.39h-13.05v-26.55h-26.11v26.55h-13.05ZM104.64,209.82v-13.27h26.11v13.27h-26.11Z" />
      <path
        class="cls-1"
        d="M156.87,276.21v-79.66h13.05v13.27h13.05v13.29h-13.05v53.1h-13.05ZM182.98,236.39v-13.27h13.05v13.27h-13.05ZM209.08,276.21v-53.1h-13.05v-13.29h13.05v-13.27h13.07v79.66h-13.07Z" />
      <path
        class="cls-1"
        d="M235.21,276.21v-79.66h52.21v13.27h-39.16v13.29h39.16v13.27h-39.16v26.55h39.16v13.27h-52.21Z" />
      <path
        class="cls-1"
        d="M300.49,276.21v-13.27h39.16v-26.55h-39.16v-39.84h52.21v13.27h-39.16v13.29h39.16v53.1h-52.21Z" />
    </g>
    <g>
      <path
        class="cls-1"
        d="M26.32,333.37v-39.21h30.84v23.53h-23.13v15.68h-7.71ZM49.45,309.85v-7.84h-15.42v7.84h15.42Z" />
      <path class="cls-1" d="M64.88,333.37v-39.21h30.84v7.85h-23.13v31.36h-7.71Z" />
      <path
        class="cls-1"
        d="M103.44,325.53v-23.52h7.71v23.52h-7.71ZM111.15,302.01v-7.85h15.42v7.85h-15.42ZM111.15,333.37v-7.84h15.42v7.84h-15.42ZM126.57,325.53v-23.52h7.71v23.52h-7.71Z" />
      <path class="cls-1" d="M142,333.37v-7.84h15.42v-15.68h7.71v23.52h-23.13ZM157.42,302.01v-7.85h7.71v7.85h-7.71Z" />
      <path
        class="cls-1"
        d="M172.84,333.37v-39.21h30.84v23.53h-23.13v7.84h23.13v7.84h-30.84ZM195.97,309.85v-7.84h-15.42v7.84h15.42Z" />
      <path
        class="cls-1"
        d="M211.39,325.53v-23.52h7.71v23.52h-7.71ZM219.1,302.01v-7.85h15.42v7.85h-15.42ZM219.1,333.37v-7.84h15.42v7.84h-15.42ZM234.52,309.85v-7.84h7.71v7.84h-7.71ZM234.52,325.53v-7.84h7.71v7.84h-7.71Z" />
      <path class="cls-1" d="M249.95,333.37v-39.21h7.71v15.69h23.13v7.84h-23.13v7.84h23.13v7.84h-30.84Z" />
    </g>
  </g>
  <g>
    <rect class="cls-3" x="427.94" y="214.85" width="13.29" height="29" />
    <rect class="cls-3" x="414.65" y="243.85" width="13.29" height="13.3" />
    <polygon
      class="cls-2"
      points="427.94 214.85 427.94 243.85 414.65 243.85 414.65 257.15 401.35 257.15 401.35 243.85 388.06 243.85 388.06 214.85 401.35 214.85 401.35 228.15 414.65 228.15 414.65 214.85 427.94 214.85" />
    <rect class="cls-1" x="414.65" y="201.56" width="13.29" height="13.29" />
    <rect class="cls-1" x="401.35" y="257.15" width="13.3" height="13.29" />
    <rect class="cls-1" x="401.35" y="214.85" width="13.3" height="13.3" />
    <rect class="cls-1" x="388.06" y="243.85" width="13.29" height="13.3" />
    <rect class="cls-1" x="388.06" y="201.56" width="13.29" height="13.29" />
    <rect class="cls-1" x="374.77" y="214.85" width="13.29" height="29" />
  </g>
</svg>
