<?xml version="1.0" encoding="UTF-8"?>
<svg id="Layer_1" data-name="Layer 1" xmlns="http://www.w3.org/2000/svg" viewBox="0 0 464 371">
  <defs>
    <style>
      .cls-1 {
        fill: #3550ce;
      }

      .cls-2 {
        fill: #e52828;
      }

      .cls-3 {
        fill: #1c317c;
      }
    </style>
  </defs>
  <g>
    <g>
      <path class="cls-1" d="M177.66,59.02V19h7.87v16.01h23.61v8h-23.61v8h23.61v8h-31.47Z"/>
      <path class="cls-1" d="M217.01,59.02V19h7.87v16.01h23.61v24.01h-7.87v-16h-15.74v16h-7.87Z"/>
      <path class="cls-1" d="M256.37,59.02V19h31.47v24.02h-23.61v8h23.61v8h-31.47ZM279.97,35.01v-8h-15.74v8h15.74Z"/>
    </g>
    <g>
      <g>
        <path class="cls-1" d="M62.51,144.37v-72.2h11.83v24.08h23.66v-24.08h11.83v72.2h-11.83v-36.09h-23.66v36.09h-11.83Z"/>
        <path class="cls-1" d="M121.67,132.34v-48.14h11.83v48.14h-11.83ZM133.5,84.2v-12.03h23.66v12.03h-23.66ZM133.5,144.37v-12.03h23.66v12.03h-23.66ZM157.16,132.34v-48.14h11.83v48.14h-11.83Z"/>
        <path class="cls-1" d="M180.84,144.37v-72.2h11.83v12.03h11.83v12.04h-11.83v48.12h-11.83ZM216.33,144.37v-36.09h-11.83v-12.03h11.83v-24.08h11.83v72.2h-11.83Z"/>
        <path class="cls-1" d="M240,144.37v-72.2h47.32v12.03h-35.49v12.04h35.49v12.03h-35.49v24.06h35.49v12.03h-47.32Z"/>
        <path class="cls-1" d="M299.16,144.37v-12.03h35.49v-24.06h-35.49v-36.11h47.32v12.03h-35.49v12.04h35.49v48.12h-47.32Z"/>
        <path class="cls-1" d="M381.99,144.37v-60.17h-23.66v-12.03h59.16v12.03h-23.67v60.17h-11.83Z"/>
      </g>
      <g>
        <path class="cls-1" d="M84.85,218.66v-48.14h11.83v48.14h-11.83ZM96.68,170.52v-12.03h35.49v12.03h-35.49ZM96.68,230.69v-12.03h23.66v12.03h-23.66ZM120.34,218.66v-24.06h-11.83v-12.03h23.66v36.09h-11.83Z"/>
        <path class="cls-1" d="M144.01,230.69v-60.17h11.83v24.08h23.66v-24.08h11.83v60.17h-11.83v-24.06h-23.66v24.06h-11.83ZM155.84,170.52v-12.03h23.66v12.03h-23.66Z"/>
        <path class="cls-1" d="M203.18,230.69v-72.2h11.83v12.03h11.83v12.04h-11.83v48.12h-11.83ZM226.83,194.6v-12.03h11.83v12.03h-11.83ZM250.49,230.69v-48.12h-11.83v-12.04h11.83v-12.03h11.84v72.2h-11.84Z"/>
        <path class="cls-1" d="M274.17,230.69v-72.2h47.32v12.03h-35.49v12.04h35.49v12.03h-35.49v24.06h35.49v12.03h-47.32Z"/>
        <path class="cls-1" d="M333.33,230.69v-12.03h35.49v-24.06h-35.49v-36.11h47.32v12.03h-35.49v12.04h35.49v48.12h-47.32Z"/>
      </g>
    </g>
    <g>
      <path class="cls-1" d="M117.44,282.49v-35.54h27.95v21.33h-20.96v14.21h-6.99ZM138.4,261.17v-7.11h-13.97v7.11h13.97Z"/>
      <path class="cls-1" d="M152.39,282.49v-35.54h27.95v7.11h-20.96v28.42h-6.99Z"/>
      <path class="cls-1" d="M187.33,275.39v-21.32h6.99v21.32h-6.99ZM194.32,254.07v-7.11h13.97v7.11h-13.97ZM194.32,282.49v-7.11h13.97v7.11h-13.97ZM208.29,275.39v-21.32h6.99v21.32h-6.99Z"/>
      <path class="cls-1" d="M222.27,282.49v-7.11h13.97v-14.21h6.99v21.32h-20.96ZM236.25,254.07v-7.11h6.99v7.11h-6.99Z"/>
      <path class="cls-1" d="M250.22,282.49v-35.54h27.95v21.33h-20.96v7.11h20.96v7.11h-27.95ZM271.18,261.17v-7.11h-13.97v7.11h13.97Z"/>
      <path class="cls-1" d="M285.17,275.39v-21.32h6.99v21.32h-6.99ZM292.15,254.07v-7.11h13.97v7.11h-13.97ZM292.15,282.49v-7.11h13.97v7.11h-13.97ZM306.13,261.17v-7.11h6.99v7.11h-6.99ZM306.13,275.39v-7.11h6.99v7.11h-6.99Z"/>
      <path class="cls-1" d="M320.11,282.49v-35.54h6.99v14.22h20.96v7.11h-20.96v7.11h20.96v7.11h-27.95Z"/>
    </g>
  </g>
  <g>
    <rect class="cls-3" x="250.91" y="310.53" width="12.07" height="26.33"/>
    <rect class="cls-3" x="238.84" y="336.86" width="12.07" height="12.08"/>
    <polygon class="cls-2" points="250.91 310.53 250.91 336.86 238.84 336.86 238.84 348.94 226.77 348.94 226.77 336.86 214.7 336.86 214.7 310.53 226.77 310.53 226.77 322.61 238.84 322.61 238.84 310.53 250.91 310.53"/>
    <rect class="cls-1" x="238.84" y="298.47" width="12.07" height="12.07"/>
    <rect class="cls-1" x="226.77" y="348.94" width="12.08" height="12.07"/>
    <rect class="cls-1" x="226.77" y="310.53" width="12.08" height="12.08"/>
    <rect class="cls-1" x="214.7" y="336.86" width="12.07" height="12.08"/>
    <rect class="cls-1" x="214.7" y="298.47" width="12.07" height="12.07"/>
    <rect class="cls-1" x="202.63" y="310.53" width="12.07" height="26.33"/>
  </g>
</svg>